<mxfile host="app.diagrams.net" agent="Mozilla/5.0 (Windows NT 10.0; Win64; x64) AppleWebKit/537.36 (KHTML, like Gecko) Chrome/128.0.0.0 Safari/537.36" version="24.7.7">
  <diagram name="PÃ¡gina-1" id="dW1IPNl7gS8OCoIvdJSG">
    <mxGraphModel dx="1434" dy="780" grid="1" gridSize="10" guides="1" tooltips="1" connect="1" arrows="1" fold="1" page="1" pageScale="1" pageWidth="827" pageHeight="1169" math="0" shadow="0">
      <root>
        <mxCell id="0" />
        <mxCell id="1" parent="0" />
        <mxCell id="wpDygDohY5x1tJzmD2KG-3" value="" style="edgeStyle=orthogonalEdgeStyle;rounded=0;orthogonalLoop=1;jettySize=auto;html=1;" edge="1" parent="1" source="wpDygDohY5x1tJzmD2KG-1" target="wpDygDohY5x1tJzmD2KG-2">
          <mxGeometry relative="1" as="geometry" />
        </mxCell>
        <mxCell id="wpDygDohY5x1tJzmD2KG-1" value="inicio" style="ellipse;whiteSpace=wrap;html=1;" vertex="1" parent="1">
          <mxGeometry x="330" y="120" width="120" height="80" as="geometry" />
        </mxCell>
        <mxCell id="wpDygDohY5x1tJzmD2KG-5" value="" style="edgeStyle=orthogonalEdgeStyle;rounded=0;orthogonalLoop=1;jettySize=auto;html=1;" edge="1" parent="1" source="wpDygDohY5x1tJzmD2KG-2" target="wpDygDohY5x1tJzmD2KG-4">
          <mxGeometry relative="1" as="geometry" />
        </mxCell>
        <mxCell id="wpDygDohY5x1tJzmD2KG-2" value="Digite fahrenheit:&lt;div&gt;Leia(nFah)&lt;/div&gt;" style="shape=parallelogram;perimeter=parallelogramPerimeter;whiteSpace=wrap;html=1;fixedSize=1;" vertex="1" parent="1">
          <mxGeometry x="330" y="290" width="120" height="60" as="geometry" />
        </mxCell>
        <mxCell id="wpDygDohY5x1tJzmD2KG-9" value="" style="edgeStyle=orthogonalEdgeStyle;rounded=0;orthogonalLoop=1;jettySize=auto;html=1;" edge="1" parent="1" source="wpDygDohY5x1tJzmD2KG-4" target="wpDygDohY5x1tJzmD2KG-8">
          <mxGeometry relative="1" as="geometry" />
        </mxCell>
        <mxCell id="wpDygDohY5x1tJzmD2KG-4" value="calcula celcius:&lt;div&gt;&lt;br&gt;&lt;/div&gt;&lt;div&gt;nCelcius = 5 x (nFah-39)/9.&lt;/div&gt;" style="whiteSpace=wrap;html=1;" vertex="1" parent="1">
          <mxGeometry x="315" y="420" width="150" height="60" as="geometry" />
        </mxCell>
        <mxCell id="wpDygDohY5x1tJzmD2KG-11" value="" style="edgeStyle=orthogonalEdgeStyle;rounded=0;orthogonalLoop=1;jettySize=auto;html=1;" edge="1" parent="1" source="wpDygDohY5x1tJzmD2KG-8" target="wpDygDohY5x1tJzmD2KG-10">
          <mxGeometry relative="1" as="geometry" />
        </mxCell>
        <mxCell id="wpDygDohY5x1tJzmD2KG-8" value="Imprima(&quot;celcius: &quot;, celcius)" style="shape=parallelogram;perimeter=parallelogramPerimeter;whiteSpace=wrap;html=1;fixedSize=1;" vertex="1" parent="1">
          <mxGeometry x="320" y="555" width="140" height="60" as="geometry" />
        </mxCell>
        <mxCell id="wpDygDohY5x1tJzmD2KG-10" value="fim" style="ellipse;whiteSpace=wrap;html=1;" vertex="1" parent="1">
          <mxGeometry x="350" y="685" width="80" height="80" as="geometry" />
        </mxCell>
      </root>
    </mxGraphModel>
  </diagram>
</mxfile>
